<?xml version="1.0" encoding="UTF-8" standalone="no"?>
<svg
   xmlns:ns="&amp;#38;ns_sfw;"
   xmlns:dc="http://purl.org/dc/elements/1.1/"
   xmlns:cc="http://creativecommons.org/ns#"
   xmlns:rdf="http://www.w3.org/1999/02/22-rdf-syntax-ns#"
   xmlns:svg="http://www.w3.org/2000/svg"
   xmlns="http://www.w3.org/2000/svg"
   xmlns:sodipodi="http://sodipodi.sourceforge.net/DTD/sodipodi-0.dtd"
   xmlns:inkscape="http://www.inkscape.org/namespaces/inkscape"
   version="1.1"
   id="Livello_1"
   x="0px"
   y="0px"
   viewBox="0 0 391.20002 391.20002"
   xml:space="preserve"
   sodipodi:docname="Google_2015_Icon.svg"
   width="391.20001"
   height="391.20001"
   inkscape:version="1.0.2-2 (e86c870879, 2021-01-15)"
   inkscape:export-filename="C:\Users\tjdru\OneDrive\Pictures\Logos\Internet\googleicon2015.png"
   inkscape:export-xdpi="245.39876"
   inkscape:export-ydpi="245.39876"><defs
   id="defs459">
	
	
	
	
	
	
	
	
		<radialGradient
   gradientUnits="userSpaceOnUse"
   gradientTransform="matrix(1.1734293,0,0,-1.1734293,-1033.1441,12.273209)"
   r="331.13019"
   cy="29.1455"
   cx="861.75537"
   id="SVGID_1_">
		<stop
   id="stop447"
   style="stop-color:#FFFFFF"
   offset="0" />
		<stop
   id="stop449"
   style="stop-color:#FFFFFF;stop-opacity:0"
   offset="1" />
	</radialGradient>
	
</defs><sodipodi:namedview
   pagecolor="#ffffff"
   bordercolor="#666666"
   borderopacity="1"
   objecttolerance="10"
   gridtolerance="10"
   guidetolerance="10"
   inkscape:pageopacity="0"
   inkscape:pageshadow="2"
   inkscape:window-width="1366"
   inkscape:window-height="705"
   id="namedview457"
   showgrid="false"
   inkscape:zoom="1"
   inkscape:cx="101.6797"
   inkscape:cy="216.06116"
   inkscape:window-x="-8"
   inkscape:window-y="-8"
   inkscape:window-maximized="1"
   inkscape:current-layer="layer2"
   inkscape:document-rotation="0" />
<style
   type="text/css"
   id="style429">
	.st0{fill:#F3F3F3;}
	.st1{fill:#FFFFFF;fill-opacity:0.2;}
	.st2{fill:#263238;fill-opacity:0.15;}
	.st3{fill:#4285F4;}
	.st4{fill:#34A853;}
	.st5{fill:#FBBC04;}
	.st6{fill:#EA4335;}
	.st7{fill:url(#SVGID_1_);fill-opacity:0.1;}
</style>
<metadata
   id="metadata431">
	<ns:sfw>
		<ns:slices />
		<ns:sliceSourceBounds
   bottomLeftOrigin="true"
   height="229.2"
   width="229.2"
   x="-42.6"
   y="-42.6" />
	</ns:sfw>
<rdf:RDF><cc:Work
     rdf:about=""><dc:format>image/svg+xml</dc:format><dc:type
       rdf:resource="http://purl.org/dc/dcmitype/StillImage" /></cc:Work></rdf:RDF></metadata>

<g
   inkscape:groupmode="layer"
   id="layer2"
   inkscape:label="Layer 1"
   transform="translate(81.000008,81.000008)"><g
     id="g528"><path
       sodipodi:nodetypes="ccccc"
       inkscape:connector-curvature="0"
       id="circle433"
       d="M 310.2,114.6 C 310.19999,222.62689 222.62689,310.19999 114.6,310.2 6.5731021,310.2 -81.000002,222.6269 -81.000008,114.6 -81.000007,6.573099 6.573099,-81.000007 114.6,-81.000008 222.6269,-81.000002 310.2,6.5731021 310.2,114.6 Z"
       style="fill:#f3f3f3;stroke:none;stroke-width:1.70681" /><path
       sodipodi:nodetypes="ccccccc"
       class="st1"
       d="m 114.6,-78.951832 c 107.69948,0 194.91728,87.0471209 195.6,194.575922 V 114.6 C 310.2,6.5591632 222.64084,-81 114.6,-81 6.5591632,-81 -81,6.5591632 -81,114.6 v 1.02409 C -80.487958,8.0952889 6.9005245,-78.951832 114.6,-78.951832 Z"
       id="path435"
       inkscape:connector-curvature="0"
       style="fill:#ffffff;fill-opacity:0.2;stroke:none;stroke-width:1.70681" /><path
       sodipodi:nodetypes="ccccccc"
       class="st2"
       d="m 114.6,308.15184 c 107.69948,0 194.91728,-87.04712 195.6,-194.57592 V 114.6 c 0,108.04084 -87.55916,195.6 -195.6,195.6 C 6.5591632,310.2 -81,222.64084 -81,114.6 v -1.02408 c 0.512042,107.5288 87.9005245,194.57592 195.6,194.57592 z"
       id="path437"
       inkscape:connector-curvature="0"
       style="fill:#263238;fill-opacity:0.15;stroke:none;stroke-width:1.70681" /><path
       sodipodi:nodetypes="cccccccccc"
       class="st3"
       d="m 201.30576,214.61885 c 24.40733,-22.70052 39.93927,-56.66597 39.93927,-100.18953 0,-7.85131 -0.68272,-16.385339 -2.56021,-24.407329 H 114.6 V 141.0555 h 71.34451 c -3.5843,17.92147 -13.31309,31.7466 -27.30891,40.62199 v 6.65654 l 34.81885,26.4555 z"
       id="path439"
       inkscape:connector-curvature="0"
       style="fill:#4285f4;fill-opacity:1;stroke:none;stroke-width:1.70681" /><path
       sodipodi:nodetypes="ccccccccc"
       class="st4"
       d="m 39.671205,139.17801 c 10.240838,31.57592 39.768587,54.10576 74.758115,54.10576 17.06806,0 32.25864,-4.09633 44.20628,-11.60628 l 42.67016,32.94136 c -23.21256,21.67644 -54.44712,33.28272 -86.87644,33.28272 -52.740313,0 -97.97068,-30.21047 -119.4764396,-74.41675 L -3.510994,164.43875 32.6733,139.17801 Z"
       id="path441"
       inkscape:connector-curvature="0"
       style="fill:#34a853;fill-opacity:1;stroke:none;stroke-width:1.70681" /><path
       sodipodi:nodetypes="ccccccccc"
       class="st5"
       d="M 39.671205,89.851311 C 37.110996,97.8733 35.916232,106.23665 35.916232,114.6 c 0,8.70471 1.194764,16.89738 3.754973,24.57801 L -5.0471196,173.48482 C -13.751832,155.73403 -18.530889,135.7644 -18.530889,114.6 c 0,-21.164396 4.779057,-41.30471 13.4837694,-59.055496 L 3.9989537,53.667017 37.793718,80.122515 Z"
       id="path443"
       inkscape:connector-curvature="0"
       style="fill:#fbbc05;fill-opacity:1;stroke:none;stroke-width:1.70681" /><path
       sodipodi:nodetypes="ccccccc"
       class="st6"
       d="m 114.6,35.745551 c 18.77487,0 35.67225,6.656544 48.98534,17.580105 L 202.32985,14.581153 C 178.77592,-6.0712034 148.39477,-18.70157 114.42932,-18.70157 c -52.740313,0 -97.97068,30.210471 -119.4764396,74.246074 L 39.671205,89.851311 C 50.082724,58.446075 79.610473,35.745551 114.6,35.745551 Z"
       id="path445"
       inkscape:connector-curvature="0"
       style="fill:#ea4335;fill-opacity:1;stroke:none;stroke-width:1.70681" /><path
       sodipodi:nodetypes="ccccc"
       inkscape:connector-curvature="0"
       id="circle452"
       d="M 310.2,114.6 C 310.19999,222.62689 222.62689,310.19999 114.6,310.2 6.5731021,310.2 -81.000002,222.6269 -81.000008,114.6 -81.000007,6.573099 6.573099,-81.000007 114.6,-81.000008 222.6269,-81.000002 310.2,6.5731021 310.2,114.6 Z"
       style="fill:url(#SVGID_1_);fill-opacity:0.1;stroke:none;stroke-width:1.70681" /></g></g></svg>
