<?xml version="1.0" encoding="UTF-8" standalone="no"?>
<!DOCTYPE svg PUBLIC "-//W3C//DTD SVG 1.1//EN" "http://www.w3.org/Graphics/SVG/1.1/DTD/svg11.dtd">
<svg width="100%" height="100%" viewBox="0 0 32 32" version="1.1" xmlns="http://www.w3.org/2000/svg" xmlns:xlink="http://www.w3.org/1999/xlink" xml:space="preserve" xmlns:serif="http://www.serif.com/" style="fill-rule:evenodd;clip-rule:evenodd;stroke-linejoin:round;stroke-miterlimit:2;">
    <rect x="3.112" y="4.939" width="25.777" height="22.043" style="fill:white;"/>
    <g transform="matrix(1,0,0,1,0.93484,2.81124)">
        <g>
            <g transform="matrix(0.166429,0,0,0.166414,-5.77544,-11.2977)">
                <path d="M199.222,140.063C199.222,131.151 198.871,123.463 198.172,116.998C197.472,110.532 196.162,105.463 194.238,101.795C191.787,94.632 186.282,90.089 177.713,88.164C170.894,86.417 157.692,85.542 138.107,85.542L112.926,85.542C93.339,85.542 80.052,86.417 73.058,88.164C64.664,90.089 58.98,94.632 56.008,101.795C52.683,109.482 51.024,122.238 51.024,140.063L51.024,154.482C51.024,172.306 52.683,185.062 56.008,192.75C59.155,199.744 64.927,204.2 73.32,206.119C80.139,207.869 93.339,208.741 112.926,208.741L138.107,208.741C157.516,208.741 170.631,207.869 177.45,206.119C186.019,204.2 191.613,199.744 194.238,192.75C196.162,189.082 197.472,184.016 198.172,177.55C198.871,171.084 199.222,163.394 199.222,154.482L199.222,140.063ZM218.647,183.072C217.596,191.291 215.846,198.109 213.4,203.528C210.775,208.775 207.275,213.278 202.9,217.034C198.525,220.793 193.366,223.546 187.418,225.296L187.418,225.556C182.344,227.13 175.782,228.356 167.735,229.231C159.685,230.106 149.888,230.541 138.344,230.541L112.889,230.541C86.295,230.541 67.836,228.093 57.517,223.197C45.968,218.127 38.183,208.772 34.161,195.134C32.762,190.066 31.755,182.985 31.143,173.891C30.53,164.8 30.224,153.522 30.224,140.06C30.224,129.047 30.705,119.432 31.668,111.213C32.63,102.995 34.333,96.264 36.783,91.017C39.408,85.773 42.861,81.27 47.149,77.511C51.436,73.754 56.727,70.827 63.027,68.727L63.289,68.727C73.086,65.405 89.62,63.742 112.889,63.742L138.344,63.742C163.888,63.742 182.256,66.28 193.453,71.348C199.053,73.798 203.819,77.383 207.756,82.102C211.694,86.823 214.621,92.679 216.547,99.673C217.596,104.57 218.471,111.563 219.172,120.654C219.871,129.748 220.221,141.022 220.221,154.485C220.221,165.326 219.697,174.853 218.647,183.072" style="fill:rgb(54,124,169);fill-rule:nonzero;"/>
            </g>
            <g transform="matrix(0.166429,0,0,0.166414,-5.77544,-11.2977)">
                <path d="M92.299,190.703L103.429,185.237L92.299,190.703L97.766,201.833L108.895,196.367L103.429,185.237L92.299,190.703ZM86.833,179.574L97.962,174.107L86.833,179.574L92.299,190.703L103.429,185.237L97.962,174.107L86.833,179.574ZM81.366,168.444L92.496,162.977L81.366,168.444L86.833,179.574L97.962,174.107L92.496,162.977L81.366,168.444ZM75.9,157.314L87.029,151.848L75.9,157.314L81.366,168.444L92.496,162.977L87.029,151.848L75.9,157.314ZM70.433,146.183L81.563,140.718L70.433,146.183L75.9,157.314L87.029,151.848L81.563,140.718L70.433,146.183ZM64.966,135.055L76.096,129.588L64.966,135.055L70.433,146.183L81.563,140.718L76.096,129.588L64.966,135.055ZM120.222,163.174L131.351,157.707L120.222,163.174L125.689,174.304L136.818,168.838L131.351,157.707L120.222,163.174ZM114.756,152.045L125.885,146.578L114.756,152.045L120.222,163.174L131.351,157.707L125.885,146.578L114.756,152.045ZM109.289,140.914L120.419,135.447L109.289,140.914L114.756,152.045L125.885,146.578L120.419,135.447L109.289,140.914ZM103.822,129.785L114.952,124.318L103.822,129.785L109.289,140.914L120.419,135.447L114.952,124.318L103.822,129.785ZM98.356,118.655L109.486,113.188L98.356,118.655L103.822,129.785L114.952,124.318L109.486,113.188L98.356,118.655ZM153.611,146.774L164.742,141.308L153.611,146.774L159.078,157.904L170.208,152.437L164.742,141.308L153.611,146.774ZM148.144,135.644L159.275,130.178L148.144,135.644L153.611,146.774L164.742,141.308L159.275,130.178L148.144,135.644ZM142.678,124.515L153.808,119.048L142.678,124.515L148.144,135.644L159.275,130.178L153.808,119.048L142.678,124.515ZM137.212,113.385L148.341,107.918L137.212,113.385L142.678,124.515L153.808,119.048L148.341,107.918L137.212,113.385ZM131.746,102.255L142.875,96.788L131.746,102.255L137.212,113.385L148.341,107.918L142.875,96.788L131.746,102.255ZM76.096,129.588L87.226,124.121L76.096,129.588L81.563,140.718L92.693,135.251L87.226,124.121L76.096,129.588ZM81.563,140.718L92.693,135.251L81.563,140.718L87.029,151.848L98.159,146.381L92.693,135.251L81.563,140.718ZM87.029,151.848L98.159,146.381L87.029,151.848L92.496,162.977L103.626,157.511L98.159,146.381L87.029,151.848ZM92.496,162.977L103.626,157.511L92.496,162.977L97.962,174.107L109.092,168.64L103.626,157.511L92.496,162.977ZM97.962,174.107L109.092,168.64L97.962,174.107L103.429,185.237L114.559,179.77L109.092,168.64L97.962,174.107ZM103.429,185.237L114.559,179.77L103.429,185.237L108.895,196.367L120.025,190.9L114.559,179.77L103.429,185.237ZM114.559,179.77L125.689,174.304L114.559,179.77L120.025,190.9L131.155,185.433L125.689,174.304L114.559,179.77ZM125.689,174.304L136.818,168.838L125.689,174.304L131.155,185.433L142.285,179.967L136.818,168.838L125.689,174.304ZM109.486,113.188L120.615,107.722L109.486,113.188L114.952,124.318L126.082,118.851L120.615,107.722L109.486,113.188ZM114.952,124.318L126.082,118.851L114.952,124.318L120.419,135.447L131.549,129.981L126.082,118.851L114.952,124.318ZM120.419,135.447L131.549,129.981L120.419,135.447L125.885,146.578L137.015,141.111L131.549,129.981L120.419,135.447ZM125.885,146.578L137.015,141.111L125.885,146.578L131.351,157.707L142.482,152.241L137.015,141.111L125.885,146.578ZM131.351,157.707L142.482,152.241L131.351,157.707L136.818,168.838L147.948,163.371L142.482,152.241L131.351,157.707ZM136.818,168.838L147.948,163.371L136.818,168.838L142.285,179.967L153.415,174.501L147.948,163.371L136.818,168.838ZM147.948,163.371L159.078,157.904L147.948,163.371L153.415,174.501L164.545,169.034L159.078,157.904L147.948,163.371ZM159.078,157.904L170.208,152.437L159.078,157.904L164.545,169.034L175.674,163.567L170.208,152.437L159.078,157.904ZM170.208,152.437L181.338,146.971L170.208,152.437L175.674,163.567L186.804,158.101L181.338,146.971L170.208,152.437ZM164.742,141.308L175.871,135.842L164.742,141.308L170.208,152.437L181.338,146.971L175.871,135.842L164.742,141.308ZM159.275,130.178L170.404,124.711L159.275,130.178L164.742,141.308L175.871,135.842L170.404,124.711L159.275,130.178ZM153.808,119.048L164.937,113.581L153.808,119.048L159.275,130.178L170.404,124.711L164.937,113.581L153.808,119.048ZM148.341,107.918L159.471,102.452L148.341,107.918L153.808,119.048L164.937,113.581L159.471,102.452L148.341,107.918ZM142.875,96.788L154.005,91.322L142.875,96.788L148.341,107.918L159.471,102.452L154.005,91.322L142.875,96.788Z" style="fill:rgb(245,130,54);fill-rule:nonzero;"/>
            </g>
        </g>
    </g>
</svg>
